# xmcd CD database file
#
# Track frame offsets:
#	150
#	7600
#	22415
#	35568
#	43425
#	55238
#	65948
#	78100
#	91488
#	98100
#	107305
#	117255
#	126415
#	136148
#	148258
#	160870
#	175063
#	186433
#	196588
#	206598
#	217088
#	225293
#	239503
#	250223
#	257118
#	266695
#
# Disc length: 3675 seconds
#
# Revision: 0
# Processed by: cddbd v1.4PL0 Copyright (c) Steve Scherf et al.
# Submitted via: CDex 1.50beta8
#
DISCID=7a0e591a
DTITLE=Various Artist - Blues and Soul - Volume 3
DYEAR=1991
DGENRE=Blues
TTITLE0=Land Of A Thousand Dances - Chris Kenner
TTITLE1=Maybeline - Chuck Berry
TTITLE2=Nadine - Chuck Berry
TTITLE3=Knock On Wood Eddie Floyd
TTITLE4=Never Found A Girl - Eddie Floyd
TTITLE5=Bring It On Home - Eddie Floyd
TTITLE6=Lets Stick Together - Wilbert Harrisson
TTITLE7=Prisoner Of Lover - ink Spots
TTITLE8=Good Golly Miss Molly - Little Richard
TTITLE9=Tell Me Pretty Mama - Lightning Hopkins
TTITLE10=Operator - Gladys Knight and Pips
TTITLE11=Every Beat Of My Heart - Gladys Knight and Pips
TTITLE12=Caldonia - Memphis Slim
TTITLE13=Im In The Mood For Love - John Lee Hooker
TTITLE14=Caress Me Baby - Jimmy Reed
TTITLE15=A Fool For You - Bobby Powell
TTITLE16=Good By baby - Elmore James
TTITLE17=Money Honey - Little Richard
TTITLE18=Lucille - Little Richard
TTITLE19=When Im Gone - Joe Simon
TTITLE20=Seventh Son - Sly and The Family Stone
TTITLE21=Warm and Tender Love - Percy Sledge
TTITLE22=Desire Me - Sam Cook
TTITLE23=Stay - Maurice Williams
TTITLE24=Is You Or Is You Aint My Baby - Buster Brown
TTITLE25=Fannie May - Buster Brown
EXTD=YEAR: 1991
EXTT0=
EXTT1=
EXTT2=
EXTT3=
EXTT4=
EXTT5=
EXTT6=
EXTT7=
EXTT8=
EXTT9=
EXTT10=
EXTT11=
EXTT12=
EXTT13=
EXTT14=
EXTT15=
EXTT16=
EXTT17=
EXTT18=
EXTT19=
EXTT20=
EXTT21=
EXTT22=
EXTT23=
EXTT24=
EXTT25=
PLAYORDER=
